<?xml version="1.0" encoding="UTF-8"?>
<svg id="_图层_1" data-name="图层 1" xmlns="http://www.w3.org/2000/svg" viewBox="0 0 640 640">
  <defs>
    <style>
      .cls-1 {
        fill: #013550;
      }

      .cls-2 {
        fill: none;
        stroke: #000;
        stroke-miterlimit: 10;
        stroke-width: 10px;
      }
    </style>
  </defs>
  <line class="cls-2" y1="29.53" x2="640" y2="29.53"/>
  <line class="cls-2" y1="300.16" x2="640" y2="300.16"/>
  <line class="cls-2" y1="337.82" x2="640" y2="337.82"/>
  <line class="cls-2" y1="611.75" x2="640" y2="611.75"/>
  <path class="cls-2" d="M96.16,29.53c-31.4,34.65-50.55,80.81-50.55,131.48,0,53.8,21.59,102.51,56.5,137.77"/>
  <path class="cls-2" d="M91.22,337.1c-31.4,35.35-50.55,82.43-50.55,134.12,0,54.88,21.59,104.56,56.5,140.53"/>
  <path class="cls-2" d="M462.48,30.22c-31.4,34.65-50.55,80.81-50.55,131.48,0,53.8,21.59,102.51,56.5,137.77"/>
  <path class="cls-2" d="M462.48,340.11c-31.4,35.06-50.55,81.75-50.55,133.01,0,54.42,21.59,103.7,56.5,139.36"/>
  <path class="cls-2" d="M182.18,30.91c31.4,34.65,50.55,80.81,50.55,131.48,0,53.8-21.59,102.51-56.5,137.77"/>
  <path class="cls-2" d="M179.22,338.1c31.4,35.22,50.55,79.42,50.55,133.63,0,54.68-21.59,104.18-56.5,140.02"/>
  <path class="cls-2" d="M550.21,30.22c31.4,34.65,50.55,80.81,50.55,131.48,0,53.8-21.59,102.51-56.5,137.77"/>
  <path class="cls-2" d="M550.21,339.46c31.4,35.06,50.55,81.75,50.55,133.01,0,54.42-21.59,103.7-56.5,139.36"/>
  <path class="cls-2" d="M134.61,31.17c-36.87,31.85-60.2,78.94-60.2,131.49s24.07,101.12,61.96,132.99"/>
  <path class="cls-2" d="M136.96,31.86c36.87,31.85,60.2,78.94,60.2,131.49,0,52.91-23.66,100.29-60.97,132.15"/>
  <path class="cls-2" d="M505.39,340.22c-36.87,32.22-60.2,79.86-60.2,133.01s24.07,102.29,61.96,134.52"/>
  <path class="cls-2" d="M507.74,340.91c36.87,32.22,60.2,79.86,60.2,133.01,0,53.52-23.66,101.45-60.97,133.68"/>
  <path class="cls-2" d="M135.01,337.82c-36.87,32.99-60.2,81.77-60.2,136.19s24.07,104.74,61.96,137.74"/>
  <path class="cls-2" d="M137.37,338.53c36.87,32.99,60.2,81.77,60.2,136.19s-23.66,103.88-60.97,136.87"/>
  <path class="cls-2" d="M505.79,31.44c-36.87,31.85-60.2,78.94-60.2,131.49s24.07,101.12,61.96,132.99"/>
  <path class="cls-2" d="M508.15,32.13c36.87,31.85,60.2,78.94,60.2,131.49,0,52.91-23.66,100.29-60.97,132.15"/>
  <line class="cls-2" x1="375.76" y1="29.53" x2="380.22" y2="609.6"/>
  <line class="cls-2" x1="232.73" y1="165.53" x2="376.8" y2="165.53"/>
  <polyline class="cls-2" points="213.57 77.65 213.57 77.65 287.67 77.65 287.67 29.53"/>
  <polyline class="cls-2" points="226.74 213.04 287.67 213.04 287.67 165.32"/>
  <circle class="cls-1" cx="137.44" cy="165.05" r="33.54"/>
  <circle class="cls-1" cx="135.22" cy="472.44" r="33.54"/>
  <circle class="cls-1" cx="506.97" cy="472.44" r="33.54"/>
  <circle class="cls-1" cx="506.34" cy="165.05" r="33.54"/>
  <polyline class="cls-2" points="227.86 118.69 287.67 118.69 287.67 165.53"/>
  <polyline class="cls-2" points="376.44 118.69 329 118.69 329 165.53 329 212.24 376.8 212.24"/>
  <polyline class="cls-2" points="329 29.53 329 77.65 376.13 77.65"/>
  <polyline class="cls-2" points="211.93 252.09 287.67 252.09 287.67 300.16"/>
  <polyline class="cls-2" points="377.47 252.09 329 252.09 329 300.16"/>
  <line class="cls-2" x1="232.73" y1="475.41" x2="376.8" y2="475.41"/>
  <polyline class="cls-2" points="213.57 387.53 213.57 387.53 287.67 387.53 287.67 339.41"/>
  <polyline class="cls-2" points="226.74 522.92 287.67 522.92 287.67 475.2"/>
  <polyline class="cls-2" points="227.86 428.57 287.67 428.57 287.67 475.2"/>
  <polyline class="cls-2" points="376.44 428.57 329 428.57 329 475.41 329 522.12 376.8 522.12"/>
  <polyline class="cls-2" points="329 339.41 329 387.53 376.13 387.53"/>
  <polyline class="cls-2" points="211.93 561.97 287.67 561.97 287.67 610.04"/>
  <polyline class="cls-2" points="377.47 561.97 329 561.97 329 610.04"/>
</svg>