<?xml version="1.0" encoding="UTF-8"?>
<svg id="_图层_1" data-name="图层 1" xmlns="http://www.w3.org/2000/svg" viewBox="0 0 640 640">
  <defs>
    <style>
      .cls-1 {
        fill: #013550;
      }

      .cls-2 {
        fill: none;
        stroke: #000;
        stroke-miterlimit: 10;
        stroke-width: 10px;
      }
    </style>
  </defs>
  <line class="cls-2" x1="640" y1="29.53" x2="0" y2="29.53"/>
  <line class="cls-2" x1="640" y1="300.16" x2="0" y2="300.16"/>
  <line class="cls-2" x1="640" y1="337.82" x2="0" y2="337.82"/>
  <line class="cls-2" x1="640" y1="611.75" x2="0" y2="611.75"/>
  <path class="cls-2" d="M543.84,29.53c31.4,34.65,50.55,80.81,50.55,131.48,0,53.8-21.59,102.51-56.5,137.77"/>
  <path class="cls-2" d="M548.78,337.1c31.4,35.35,50.55,82.43,50.55,134.12,0,54.88-21.59,104.56-56.5,140.53"/>
  <path class="cls-2" d="M177.52,30.22c31.4,34.65,50.55,80.81,50.55,131.48,0,53.8-21.59,102.51-56.5,137.77"/>
  <path class="cls-2" d="M177.52,340.11c31.4,35.06,50.55,81.75,50.55,133.01,0,54.42-21.59,103.7-56.5,139.36"/>
  <path class="cls-2" d="M457.82,30.91c-31.4,34.65-50.55,80.81-50.55,131.48,0,53.8,21.59,102.51,56.5,137.77"/>
  <path class="cls-2" d="M460.78,338.1c-31.4,35.22-50.55,79.42-50.55,133.63,0,54.68,21.59,104.18,56.5,140.02"/>
  <path class="cls-2" d="M89.79,30.22c-31.4,34.65-50.55,80.81-50.55,131.48,0,53.8,21.59,102.51,56.5,137.77"/>
  <path class="cls-2" d="M89.79,339.46c-31.4,35.06-50.55,81.75-50.55,133.01,0,54.42,21.59,103.7,56.5,139.36"/>
  <path class="cls-2" d="M505.39,31.17c36.87,31.85,60.2,78.94,60.2,131.49,0,53.37-24.07,101.12-61.96,132.99"/>
  <path class="cls-2" d="M503.04,31.86c-36.87,31.85-60.2,78.94-60.2,131.49s23.66,100.29,60.97,132.15"/>
  <path class="cls-2" d="M134.61,340.22c36.87,32.22,60.2,79.86,60.2,133.01,0,53.99-24.07,102.29-61.96,134.52"/>
  <path class="cls-2" d="M132.26,340.91c-36.87,32.22-60.2,79.86-60.2,133.01,0,53.52,23.66,101.45,60.97,133.68"/>
  <path class="cls-2" d="M504.99,337.82c36.87,32.99,60.2,81.77,60.2,136.19,0,55.28-24.07,104.74-61.96,137.74"/>
  <path class="cls-2" d="M502.63,338.53c-36.87,32.99-60.2,81.77-60.2,136.19,0,54.8,23.66,103.88,60.97,136.87"/>
  <path class="cls-2" d="M134.21,31.44c36.87,31.85,60.2,78.94,60.2,131.49,0,53.37-24.07,101.12-61.96,132.99"/>
  <path class="cls-2" d="M131.85,32.13c-36.87,31.85-60.2,78.94-60.2,131.49,0,52.91,23.66,100.29,60.97,132.15"/>
  <line class="cls-2" x1="264.24" y1="29.53" x2="259.78" y2="609.6"/>
  <line class="cls-2" x1="407.27" y1="165.53" x2="263.2" y2="165.53"/>
  <polyline class="cls-2" points="426.43 77.65 426.43 77.65 352.33 77.65 352.33 29.53"/>
  <polyline class="cls-2" points="413.26 213.04 352.33 213.04 352.33 165.32"/>
  <circle class="cls-1" cx="502.56" cy="165.05" r="33.54"/>
  <circle class="cls-1" cx="504.78" cy="472.44" r="33.54"/>
  <circle class="cls-1" cx="133.03" cy="472.44" r="33.54"/>
  <circle class="cls-1" cx="133.66" cy="165.05" r="33.54"/>
  <polyline class="cls-2" points="412.14 118.69 352.33 118.69 352.33 165.53"/>
  <polyline class="cls-2" points="263.56 118.69 311 118.69 311 165.53 311 212.24 263.2 212.24"/>
  <polyline class="cls-2" points="311 29.53 311 77.65 263.87 77.65"/>
  <polyline class="cls-2" points="428.07 252.09 352.33 252.09 352.33 300.16"/>
  <polyline class="cls-2" points="262.53 252.09 311 252.09 311 300.16"/>
  <line class="cls-2" x1="407.27" y1="475.41" x2="263.2" y2="475.41"/>
  <polyline class="cls-2" points="426.43 387.53 426.43 387.53 352.33 387.53 352.33 339.41"/>
  <polyline class="cls-2" points="413.26 522.92 352.33 522.92 352.33 475.2"/>
  <polyline class="cls-2" points="412.14 428.57 352.33 428.57 352.33 475.2"/>
  <polyline class="cls-2" points="263.56 428.57 311 428.57 311 475.41 311 522.12 263.2 522.12"/>
  <polyline class="cls-2" points="311 339.41 311 387.53 263.87 387.53"/>
  <polyline class="cls-2" points="428.07 561.97 352.33 561.97 352.33 610.04"/>
  <polyline class="cls-2" points="262.53 561.97 311 561.97 311 610.04"/>
</svg>