<?xml version="1.0" encoding="UTF-8"?>
<svg id="_图层_1" data-name="图层 1" xmlns="http://www.w3.org/2000/svg" viewBox="0 0 640 640">
  <defs>
    <style>
      .cls-1 {
        fill: #013550;
      }

      .cls-2 {
        fill: none;
        stroke: #000;
        stroke-miterlimit: 10;
        stroke-width: 11px;
      }
    </style>
  </defs>
  <polygon class="cls-2" points="146.29 184.17 200.68 238.56 163.02 276.21 202.48 315.67 161.79 356.36 199.82 394.39 146.29 449.63 186.79 490.14 241.18 435.75 283.2 477.78 323.9 437.08 361.93 475.12 399.58 437.47 450.55 488.43 491.62 447.35 440.66 396.39 479.83 357.22 441.8 319.19 484.01 276.97 441.99 234.94 493.71 183.22 452.35 141.86 400.63 193.58 362.6 155.55 320 197.39 280.92 158.31 241.75 197.48 186.13 141.86 146.29 184.17"/>
  <path class="cls-1" d="M284.35,261.76c0,13.23-10.73,23.96-23.96,23.96s-23.96-10.73-23.96-23.96,10.73-23.96,23.96-23.96,23.96,10.73,23.96,23.96"/>
  <path class="cls-1" d="M284.35,380.42c0,13.23-10.73,23.96-23.96,23.96s-23.96-10.73-23.96-23.96,10.73-23.96,23.96-23.96,23.96,10.73,23.96,23.96"/>
  <path class="cls-1" d="M396.92,372.99c0,13.23-10.73,23.96-23.96,23.96s-23.96-10.73-23.96-23.96,10.73-23.96,23.96-23.96,23.96,10.73,23.96,23.96"/>
  <path class="cls-1" d="M396.92,261.76c0,13.23-10.73,23.96-23.96,23.96s-23.96-10.73-23.96-23.96,10.73-23.96,23.96-23.96,23.96,10.73,23.96,23.96"/>
  <path class="cls-1" d="M340.53,320c0,13.23-10.73,23.96-23.96,23.96s-23.96-10.73-23.96-23.96,10.73-23.96,23.96-23.96,23.96,10.73,23.96,23.96"/>
  <polygon class="cls-2" points="10.44 85.07 107.36 181.99 40.26 249.09 110.58 319.41 38.06 391.93 105.83 459.7 10.44 558.14 82.62 630.32 179.54 533.41 254.43 608.3 326.95 535.78 394.73 603.55 461.82 536.46 552.64 627.28 625.84 554.08 535.02 463.26 604.83 393.45 537.05 325.68 612.28 250.45 537.39 175.55 629.56 83.38 555.86 9.68 463.69 101.85 395.91 34.07 320 108.62 250.36 38.99 180.56 108.8 81.43 9.68 10.44 85.07"/>
</svg>