<?xml version="1.0" encoding="UTF-8"?>
<svg id="_图层_1" data-name="图层 1" xmlns="http://www.w3.org/2000/svg" viewBox="0 0 640 640">
  <defs>
    <style>
      .cls-1 {
        fill: #013550;
      }

      .cls-2 {
        fill: none;
        stroke-width: 11px;
      }

      .cls-2, .cls-3 {
        stroke: #000;
        stroke-miterlimit: 10;
      }

      .cls-3 {
        fill: #fff;
        stroke-width: 15px;
      }
    </style>
  </defs>
  <line class="cls-3" y1="320" x2="640" y2="320"/>
  <line class="cls-3" x1="320" x2="320" y2="640"/>
  <polygon class="cls-2" points="20.86 52.86 61.71 93.71 33.43 122 63.07 151.64 32.5 182.21 61.07 210.79 20.86 252.28 51.29 282.71 92.14 241.86 123.71 273.43 154.29 242.86 182.86 271.43 211.14 243.14 249.43 281.43 280.29 250.57 242 212.29 271.43 182.86 242.86 154.29 274.57 122.57 243 91 281.86 52.14 250.79 21.07 211.93 59.93 183.36 31.36 151.36 62.79 122 33.43 92.57 62.86 50.79 21.07 20.86 52.86"/>
  <circle class="cls-1" cx="104.86" cy="111.14" r="18"/>
  <circle class="cls-1" cx="106.57" cy="200.29" r="18"/>
  <circle class="cls-1" cx="192.86" cy="200.29" r="18"/>
  <circle class="cls-1" cx="192.86" cy="111.14" r="18"/>
  <circle class="cls-1" cx="151.36" cy="151.89" r="18"/>
  <polygon class="cls-2" points="20.86 383.43 61.71 424.29 33.43 452.57 63.07 482.21 32.5 512.79 61.07 541.36 20.86 582.86 51.29 613.29 92.14 572.43 123.71 604 154.29 573.43 182.86 602 211.14 573.71 249.43 612 280.29 581.14 242 542.86 271.43 513.43 242.86 484.86 274.57 453.14 243 421.57 281.86 382.71 250.79 351.64 211.93 390.5 183.36 361.93 151.36 393.36 122 364 92.57 393.43 50.79 351.64 20.86 383.43"/>
  <circle class="cls-1" cx="104.86" cy="441.71" r="18"/>
  <circle class="cls-1" cx="106.57" cy="530.86" r="18"/>
  <circle class="cls-1" cx="192.86" cy="530.86" r="18"/>
  <circle class="cls-1" cx="192.86" cy="441.71" r="18"/>
  <circle class="cls-1" cx="151.36" cy="482.46" r="18"/>
  <polygon class="cls-2" points="360.14 383.43 401 424.29 372.71 452.57 402.36 482.21 371.79 512.79 400.36 541.36 360.14 582.86 390.57 613.29 431.43 572.43 463 604 493.57 573.43 522.14 602 550.43 573.71 588.71 612 619.57 581.14 581.29 542.86 610.71 513.43 582.14 484.86 613.86 453.14 582.29 421.57 621.14 382.71 590.07 351.64 551.21 390.5 522.64 361.93 490.64 393.36 461.29 364 431.86 393.43 390.07 351.64 360.14 383.43"/>
  <circle class="cls-1" cx="444.14" cy="441.71" r="18"/>
  <circle class="cls-1" cx="445.86" cy="530.86" r="18"/>
  <circle class="cls-1" cx="532.14" cy="530.86" r="18"/>
  <circle class="cls-1" cx="532.14" cy="441.71" r="18"/>
  <circle class="cls-1" cx="490.64" cy="482.46" r="18"/>
  <polygon class="cls-2" points="360.14 52.86 401 93.71 372.71 122 402.36 151.64 371.79 182.21 400.36 210.79 360.14 252.28 390.57 282.71 431.43 241.86 463 273.43 493.57 242.86 522.14 271.43 550.43 243.14 588.71 281.43 619.57 250.57 581.29 212.29 610.71 182.86 582.14 154.29 613.86 122.57 582.29 91 621.14 52.14 590.07 21.07 551.21 59.93 522.64 31.36 490.64 62.79 461.29 33.43 431.86 62.86 390.07 21.07 360.14 52.86"/>
  <circle class="cls-1" cx="444.14" cy="111.14" r="18"/>
  <circle class="cls-1" cx="445.86" cy="200.29" r="18"/>
  <circle class="cls-1" cx="532.14" cy="200.29" r="18"/>
  <circle class="cls-1" cx="532.14" cy="111.14" r="18"/>
  <circle class="cls-1" cx="490.64" cy="151.89" r="18"/>
</svg>