<?xml version="1.0" encoding="UTF-8"?>
<svg id="_图层_1" data-name="图层_1" xmlns="http://www.w3.org/2000/svg" version="1.1" viewBox="0 0 3024 4032">
  <!-- Generator: Adobe Illustrator 29.5.1, SVG Export Plug-In . SVG Version: 2.1.0 Build 141)  -->
  <defs>
    <style>
      .st0 {
        fill: #933300;
      }

      .st1 {
        fill: #fff;
        opacity: 0;
      }

      .st2 {
        fill: #002191;
      }
    </style>
  </defs>
  <path class="st1" d="M3024,0v4032H0V0h3024ZM1514.7,609.3c-4.1-3.8-19.4-22-24-22.9-12.1-2.4-20,13.7-25.7,19.6-45.8,47.3-89.3,94.9-129,147-81.6,106.9-165.2,244.7-191.5,378.5-2.5,12.5,1.3,29.3-9.8,38.4-2.6.8-3.9-.8-5.9-1.7-49.6-23.9-88.1-52-142.4-71.6-151-54.7-316-68.5-475.5-62.4-23.4.9-30.9-11-31.9,22.8-2.1,73.5,6.7,153.8,16.7,226.2,19.5,142.1,55.5,285.5,141.1,402.9l1,9.9-60.4,12.6c-170.8,56.4-321.2,169.9-446.6,295.4s-16.3,21.1-23.8,30.2-19.5,14.4-19,26.7,15.4,19.5,22.9,27.1c68.3,68.7,135,126.6,215.6,180.4,89.5,59.7,159.9,100.4,265.3,128.7,15.1,4.1,36,6.2,50.6,11.4s3.4,1.8,4.6,3.4c1,2-8.7,21.8-10.7,25.4-29.9,54.8-51.8,94.2-71.5,154.5-44.6,136.9-70.9,315.8-62.9,459.1.6,11.5-4.4,24.7,9.5,28.5,12.8,3.5,22,.2,33.5.4,52.1.7,107.7-.5,160.1-5.9,31.4-3.2,70.5-8.4,101.1-14.9,56.9-12.1,120.1-25.9,173.9-46.1,46.2-17.3,98.1-42.1,141.2-66.8,7.5-4.3,25.1-22.3,33.5-19.9,4.8,2.2,6.5,7.5,8,12.1,7.1,21.6,8.3,45.2,15.3,66.7,25.3,77.4,60.6,151.5,103.2,220.8s81.6,110.1,123.7,164.3c11.7,15,10.1,16.9,25.2,30.8,14.5,13.2,30.7,30.6,45,44.9,8.9,8.8,34,42.1,45.9,42.3s11-4,15.1-7.1c20.2-15.6,56.7-58.3,75-79,85.2-96.7,155.4-201.1,209.5-318.5,13.3-28.9,29-61.2,38-92s9.2-48.2,15.5-70.5c4.8-16.6,11.5-15.4,26-8.2s12.1,9.9,18.5,13.5c107,60.3,222,96.5,341.8,116.2,13.5,2.2,29,10.8,40.9,11.3,7,.3,12.6-2.7,19.5-1.8s13.5,6.8,22.4,7.7,15.2-1.9,21.6-1.6c22.8,1.1,53.6,3.4,76.1,6,8.3,1,20.6,7.4,28.2,8s13-3.6,20-4.2c14.9-1.3,63.6,3.8,72.5-4.5,4.6-4.3,8-31.4,8.1-38.5.2-10.5-3.3-25.5-3.6-36-5.4-186.6-43-404.8-142.3-565.7-5.5-8.9-30.3-33.1-27.5-42,2.9-9.1,27.7-8.1,34.3-9.8,166.2-41.4,328.6-159.4,452.4-273.6,31.3-28.9,57.5-62.2,90-90,4.9-8.1-6.9-21.5-12.9-27.1-24-22.4-56.7-41.9-82.8-63.2-11.3-9.2-21.7-21.1-32.2-29.8-128.5-106.6-266.4-199.8-433.2-234.8-5.3-1.1-28.4-6.3-29.8-10.4-2.8-8.4,16.7-28.2,21.5-36.1,59.2-96.7,87.3-221.2,104.4-331.6,10.8-69.5,16.1-137.5,16.1-208.1,0-21.3,1.5-47.3,0-68-.8-11.7-1-23.2-15-25-10.2-1.3-31.6,2.1-44.2,2.2-189.5,1.3-381.3,25.5-547.5,122.3-14.5,8.4-28.7,18.3-43.2,26.9-5.8,3.4-8.5,10.5-14.8,8.4l-6.4-7.7c-44.5-207.8-185.8-394.2-338.3-536.7Z"/>
  <path d="M1514.7,609.3c152.5,142.5,293.8,328.9,338.3,536.7l6.4,7.7c6.3,2.1,9-5,14.8-8.4,14.5-8.6,28.7-18.4,43.2-26.9,166.2-96.8,358-121,547.5-122.3,12.6,0,33.9-3.5,44.2-2.2,14,1.8,14.1,13.3,15,25,1.5,20.7,0,46.7,0,68,0,70.6-5.3,138.6-16.1,208.1-17.1,110.4-45.2,235-104.4,331.6-4.8,7.8-24.3,27.7-21.5,36.1s24.5,9.2,29.8,10.4c166.8,35,304.7,128.2,433.2,234.8,10.5,8.7,25,17.6,36.3,26.8,26.1,21.3,54.7,43.8,78.7,66.2,6,5.6,17.8,19,12.9,27.1-32.5,27.7-58.7,61.1-90,90-123.8,114.1-286.2,232.2-452.4,273.6-6.7,1.7-31.4.7-34.3,9.8-2.9,8.9,22,33.1,27.5,42,99.3,160.8,136.9,379.1,142.3,565.7.3,10.5,3.8,25.5,3.6,36-.1,7.1-3.5,34.2-8.1,38.5-8.9,8.3-57.6,3.2-72.5,4.5s-11.9-.4-19.7-1-20.2-1.8-28.5-2.8c-22.4-2.6-53.3-4.8-76.1-6-6.4-.3-13.2-1.7-21.8-2.7-8.9-.9-15.7-2.6-22.1-3.5s-13.4-1.6-20.4-2.5c-12.7-1.6-26.5-4.8-40-7-119.9-19.7-234.8-55.9-341.8-116.2-6.4-3.6-12-10.3-18.5-13.5-14.5-7.2-21.2-8.3-26,8.2-6.4,22.2-8.9,47.8-15.5,70.5s-24.7,63.1-38,92c-54.1,117.4-124.3,221.7-209.5,318.5-18.3,20.8-54.8,63.5-75,79-4.1,3.1-9.8,7.2-15.1,7.1-11.9-.2-37-33.4-45.9-42.3-14.3-14.3-30.6-31.7-45-44.9-15.1-13.9-13.5-15.8-25.2-30.8-42.1-54.2-87.7-105.8-123.7-164.3s-78-143.3-103.2-220.8c-7-21.5-8.1-45.1-15.3-66.7-1.5-4.6-3.2-9.9-8-12.1-8.4-2.4-26,15.6-33.5,19.9-43.1,24.7-95,49.5-141.2,66.8-53.8,20.2-117,34-173.9,46.1s-69.7,11.7-101.1,14.9c-52.4,5.4-108,6.6-160.1,5.9-11.4-.2-20.6,3.1-33.5-.4-13.9-3.8-8.8-17-9.5-28.5-8-143.3,18.3-322.2,62.9-459.1,19.7-60.4,41.6-99.7,71.5-154.5,2-3.7,11.7-23.4,10.7-25.4-1.2-1.7-2.7-2.7-4.6-3.4-14.6-5.3-35.4-7.4-50.6-11.4-105.3-28.3-175.8-69-265.3-128.7-80.6-53.8-147.3-111.7-215.6-180.4-7.5-7.6-22.4-14.6-22.9-27.1s12.2-18.6,19-26.7,15-21.3,23.8-30.2c125.4-125.5,275.8-239,446.6-295.4l60.4-12.6-1-9.9c-85.6-117.4-121.6-260.8-141.1-402.9s-18.8-152.7-16.7-226.2,8.5-22,31.9-22.8c159.5-6.1,324.4,7.7,475.5,62.4,54.3,19.7,92.7,47.7,142.4,71.6,1.9.9,3.2,2.5,5.9,1.7,11.1-9.1,7.3-25.9,9.8-38.4,26.3-133.8,110-271.5,191.5-378.5,39.7-52.1,83.2-99.7,129-147,5.8-6,13.6-22,25.7-19.6,4.6.9,19.9,19.1,24,22.9ZM1509.1,652.9c-16.2-12.7-28.3-16.4-44.2-.9-19.3,18.8-37.3,49.1-54.1,69.9-45.4,56.2-87.3,105.5-123.6,168.4-61.7,106.8-103.8,213.4-108.7,338.9-.4,10.3,8.3,56.5-16.5,37.9-9.5-7.1-15.9-18.4-24.9-27-27.1-25.7-51.7-35-79.8-54.2-4.9-3.3-10-6.6-15.1-9.7-6.1-3.7-18.2-11.8-26.1-15.1-75.6-31.8-138.3-53.1-219.3-68.7-70.7-13.7-161.7-21.7-233.7-22.3-7.9,0-37.6,1.3-42.1,6.1-8.4,9-5.2,38.9-4.8,51,2.2,66.6,13.6,133.4,25.7,200.1,19.6,108.2,47.9,200.6,105.7,294.3,23.8,38.5,55.3,69.1,86.5,101.5,3.8,5.5,2.7,12-3.6,14.6-1.5.6-23.2,4.4-25.5,4.6-10.6.6-20.6-2.9-32.1-2.1-55,3.9-136.7,29.9-187,57s-46.5,22.9-69.3,36.7c-80.7,49-153.8,106.4-222.5,171.5-7.5,7.1-13.5,12.9-20.8,20.2-10.5,10.5-35.7,24.1-25.4,41.8s36.2,34.1,51.1,46.9c101.6,86.7,210.3,168.9,337,213,64.6,22.5,107.9,31.4,176.9,35.1,8.3.5,37-3.9,38.9,7.2-14.9,31.1-43.9,50.7-64.6,76.9s-39.5,63.4-54.9,95.1c-24.9,51.3-46.1,124.1-57.8,180.2-17.3,83.3-28.5,174.1-30.6,259.4-.3,11.9-2.9,41.7,6.7,48.5,5.4,3.8,41.9,3.4,50.5,2.7,142.4-11.6,306.1-33.7,435.6-98.4,55.4-27.6,91.7-57.7,136.4-99.6,3-2.8,23.7-31,26.9-13.1,3.1,17.2.6,34.7,2.1,51.9,8.1,93,38.8,180.8,81.7,262.3,49.1,93.2,113.1,174.2,181.3,252.7,9.8,11.2,40.9,54.6,54,56,13.4,1.4,33.4-22.2,42-32,111-125.9,259.5-337.5,271-509,1.6-24.6-3.4-56.9.1-79.9,4-25.7,30.7,13.2,36.8,19,134.2,128.7,343.5,174,523.8,194.2,31.8,3.5,55.7,2.4,86,4.4,10.4.7,22.3,6.5,35.4,4.5,20-3,10.4-41,9.9-54.2-7-180.4-53-414.9-167.2-558.8-12.9-16.2-31.8-29.7-45.9-44.1-2.9-3-18.6-21.2-18.9-23.2-3.8-21.7,22.7-11.3,32.8-11.1,42.8.6,102.6-12.4,143.2-24.7,152-46.2,301.4-157.2,414.9-265.1,6.8-6.4,36.4-26.6,37.1-33,.6-6.1-15.2-22.7-20-28-13.2-14.3-25.2-25-40.7-35.3-17.3-11.5-31.3-24.5-47.1-36.9-63.3-49-130.9-93.9-200.2-133.8-19.5-11.2-36.9-14.4-55.9-22.1-4.3-1.7-12.1-9.9-18.7-13.3-17.5-8.8-44.5-17.5-63.4-24.6-39.8-15.1-104.9-22.9-147-23-15.8,0-30.4,2-44.7-6.3-7.2-11.6,20.7-29,26.8-35.6,127.8-139.7,167.7-356,182.9-539.1,1.4-16.4,2.2-76.7-2.1-89.9-6.6-20-22.8-12.8-36.9-12.9-25.5-.3-35.1,3.9-58,5.8-114.8,9.3-217.9,22.2-326.7,61.3-79.9,28.8-165,73.6-223.4,136.6-3.5,3.7-4.4,8.9-7.9,12.1-3.9,3.6-18.5,12.4-23,7.8-3.5-37-.5-73.1-7.1-109.9-25.3-141.7-126-293.8-217-402.5-20.8-24.8-56.4-69.4-80.9-88.7Z"/>
  <path class="st1" d="M1509.1,652.9c24.5,19.2,60.1,63.8,80.9,88.7,91,108.7,191.7,260.8,217,402.5,6.6,36.9,3.5,73,7.1,109.9,4.5,4.5,19.1-4.2,23-7.8,3.4-3.2,4.4-8.4,7.9-12.1,58.4-63,143.5-107.9,223.4-136.6,108.7-39.2,211.9-52,326.7-61.3,22.9-1.9,32.5-6.1,58-5.8,14.1.2,30.3-7,36.9,12.9,4.3,13.2,3.5,73.5,2.1,89.9-15.3,183.1-55.1,399.4-182.9,539.1-6.1,6.7-33.9,24-26.8,35.6,14.3,8.3,28.9,6.2,44.7,6.3,42.1.1,107.2,7.9,147,23,18.8,7.2,45.9,15.8,63.4,24.6,6.6,3.3,14.5,11.6,18.7,13.3,19,7.7,36.4,10.8,55.9,22.1,69.3,39.9,136.9,84.8,200.2,133.8,15.9,12.3,29.8,25.4,47.1,36.9,15.5,10.3,27.5,21.1,40.7,35.3,4.8,5.2,20.6,21.9,20,28-.7,6.4-30.4,26.6-37.1,33-113.5,107.9-262.9,218.9-414.9,265.1-40.6,12.4-100.5,25.4-143.2,24.7-10.1-.1-36.6-10.6-32.8,11.1.3,2,16,20.2,18.9,23.2,14.1,14.4,33,27.8,45.9,44.1,114.2,143.9,160.2,378.4,167.2,558.8.5,13.1,10.1,51.2-9.9,54.2-13.1,2-25-3.9-35.4-4.5-30.4-1.9-54.2-.8-86-4.4-180.3-20.1-389.6-65.5-523.8-194.2-6.1-5.8-32.8-44.7-36.8-19-3.6,23,1.5,55.3-.1,79.9-11.4,171.6-159.9,383.2-271,509-8.6,9.8-28.6,33.4-42,32-13.1-1.4-44.2-44.8-54-56-68.3-78.5-132.2-159.5-181.3-252.7-42.9-81.5-73.6-169.3-81.7-262.3-1.5-17.2,1.1-34.7-2.1-51.9-3.2-17.9-23.9,10.3-26.9,13.1-44.6,41.9-81,72-136.4,99.6-129.6,64.7-293.3,86.7-435.6,98.4-8.6.7-45.1,1.1-50.5-2.7-9.6-6.7-7-36.5-6.7-48.5,2.2-85.3,13.3-176.1,30.6-259.4,11.7-56.2,32.9-128.9,57.8-180.2,15.4-31.7,32.8-67.2,54.9-95.1s49.7-45.8,64.6-76.9c-1.8-11.1-30.6-6.8-38.9-7.2-69-3.8-112.3-12.7-176.9-35.1-126.7-44.1-235.4-126.3-337-213-15-12.8-41-29.4-51.1-46.9s15-31.3,25.4-41.8c7.3-7.3,13.3-13.1,20.8-20.2,68.8-65,141.8-122.5,222.5-171.5,22.8-13.8,45.7-23.9,69.3-36.7,50.2-27.1,132-53.1,187-57,11.4-.8,21.4,2.7,32.1,2.1,2.4-.1,24-3.9,25.5-4.6,6.3-2.6,7.4-9.1,3.6-14.6-31.2-32.4-62.7-63-86.5-101.5-57.9-93.7-86.2-186.1-105.7-294.3-12.1-66.7-23.4-133.5-25.7-200.1-.4-12-3.6-42,4.8-51,4.5-4.7,34.1-6.2,42.1-6.1,72,.6,163,8.6,233.7,22.3,80.9,15.6,143.6,36.9,219.3,68.7,7.9,3.3,19.9,11.4,26.1,15.1,5.1,3.1,10.2,6.4,15.1,9.7,28.2,19.2,52.8,28.4,79.8,54.2s15.5,19.9,24.9,27c24.8,18.6,16.1-27.6,16.5-37.9,4.9-125.5,47-232.1,108.7-338.9,36.3-62.9,78.2-112.2,123.6-168.4,16.8-20.8,34.8-51.1,54.1-69.9,15.9-15.5,28-11.8,44.2.9ZM1818.7,1340.7c-17.8,18.1-34.7,41.4-52.6,58.4-1.8,1.7-7.3,6.4-9.2,3-.3-8.9-2.9-18.1-3-27-.6-39.5,4.3-79.6,2.2-120.2-9.3-172.7-86.9-324-199.1-450.9l-62.1-60.1c-11.3-1-44.5,33.8-53,43.1-86.3,94.1-167.7,242.4-191.4,368.6-12.8,68.3-11.9,140.4-12.6,209.4-.2,17.2,1.6,34,2.1,51.1-7.8-7.1-17.4-12.8-25-19.9-35.1-33-65.2-72.7-103.1-102.9-134.6-107.5-277.5-147.3-449-153.2-4.2-.1-8.1,2.1-11.9,2.1-22.7-.4-62.7-17.4-63,23-.7,85.9,19.7,209.1,47,291,43.9,131.7,124.2,219.3,223,311,5,4.7,10.7,9.6,15.5,14.4,9,9-10.4,10.2-16.5,10.7-37.8,2.9-80.5-2.6-120.1,0-187,12-346.8,100.2-474,234-8.2,8.6-28.5,19.8-22,35.9s22.7,28.8,25.9,32.1c5.6,5.9,15.5,14.2,22.1,19.9,43.3,37.9,91,74,142.3,101.7,15.2,8.2,25.5,15.7,40.1,23.9,70.6,39.3,160.6,62.3,241.9,67.7,38,2.5,77.1,2,115.6,2.2,17.6.1,37.5-4.6,55.1.6,3.9,5.7-18,18.9-22.1,22.9-59.9,59-119.4,124-159.6,198.4-62.7,116.1-87.7,245.9-92.3,375.7-.4,10.7-3,20.1-2,31.9,2.8,34.1,18.1,29.8,46.9,29,104.6-2.9,210.3-20.3,306.4-63.6,28.9-13,65.8-30.5,90.8-47.2,66.7-44.6,118.7-99,174.5-155.4,5.3-5.4,17.7-26.4,26.2-19.9s5.1,29.1,5.3,33.1c.8,15.9-4.2,34-4.2,50.1.5,205,77.4,390,215.1,539,10.5,11.3,26.1,30.7,37.6,39.4,2.2,1.7,10,4.4,12.6,4.5,12.5.5,36.5-31.6,45.5-41.2,64-68.1,128.7-165,162.9-252.1,45.9-117,47.6-217,46.4-339.6s-6.6-32.5,2.5-35.7c13-2.5,15.6,11.2,21.5,17.7,21.4,23.5,45.6,45.2,67.1,68.9s2.7,7.2,4.9,9.1,11,3,15.9,6.1,7.4,9.2,10.8,12.2c16.6,14.5,35.2,26.9,52.2,40.8s11.9,13.8,15.9,16.1,11.4,1.9,17.6,4.4c18.4,7.4,43.1,26.9,61.4,36.6,14,7.4,28.7,11.2,43.2,16.8,76.5,29.6,149.9,50.4,231.7,58.3,32.1,3.1,68,9.2,100.3,7.9,15.5-.6,28.9-1.6,30.9-19.1,6.4-57.4-9-138.4-21.1-194.9-42-196.7-115.7-300.9-260.9-433.1-4.3-3.9-22.9-21.3-22-26,.5-2.5,4.7-2.9,6.9-3.1,10.7-1.3,29.2,2.4,42.2,2.2,30.2-.4,61.6-3.5,91.8-4.2,12.4-.3,24.1,3,35.9,1.9,64.4-6.4,145.5-32,205.2-56.8,63.7-26.5,134.9-71.9,187.9-116.1,19.1-15.9,63-54.6,77.2-72.8,8.7-11.2,16.8-23.7,9-37-3-5.2-36.8-39.7-42.9-45.1-88.1-76.4-210.8-148.8-324.2-179.8-80.4-22-167.4-21.6-250-20.2-8.4.1-60.2,9.5-40.3-13.3,7.4-8.4,18.9-19.2,27.3-27.6,40.7-40.8,81.4-78.3,113.2-126.8,6-9.2,12-18.8,18.3-27.7,45.8-65.7,72.7-148.3,91.5-226.5,18.1-75.1,24-149.9,22.6-227.1-.2-9.5-9.6-16.8-18.7-17.1-119.4-4.4-273.5,28.7-381,83.1-72.8,36.8-142.1,95.6-199.2,153.8Z"/>
  <path d="M1819.7,1342.8c57.1-58.2,126.4-116.9,199.2-153.8,107.5-54.4,261.6-87.4,381-83.1,9.1.3,18.5,7.6,18.7,17.1,1.3,77.2-4.6,152-22.6,227.1-18.8,78.1-45.8,160.8-91.5,226.5-6.3,9-12.3,18.6-18.3,27.7-31.8,48.5-72.5,85.9-113.2,126.8-8.4,8.4-20,19.2-27.3,27.6-19.9,22.8,31.9,13.4,40.3,13.3,82.6-1.4,169.6-1.8,250,20.2,113.4,31.1,236,103.4,324.2,179.8,6.1,5.3,39.9,39.9,42.9,45.1,7.8,13.4-.2,25.9-9,37-14.2,18.2-58.1,56.9-77.2,72.8-52.9,44.2-124.2,89.6-187.9,116.1-59.6,24.8-140.8,50.4-205.2,56.8-11.8,1.2-23.5-2.1-35.9-1.9-30.2.6-61.6,3.8-91.8,4.2-12.9.2-31.5-3.5-42.2-2.2s-6.4.6-6.9,3.1c-.9,4.7,17.7,22.1,22,26,145.3,132.1,219,236.3,260.9,433.1,12.1,56.6,27.5,137.5,21.1,194.9-2,17.4-15.4,18.5-30.9,19.1-32.3,1.3-68.2-4.8-100.3-7.9-81.8-7.9-155.2-28.7-231.7-58.3-14.5-5.6-29.3-9.4-43.2-16.8-18.3-9.7-42.9-29.2-61.4-36.6-6.2-2.5-10.9-5.9-15.8-8.7s-13-7.8-17.8-11.7c-17.1-13.9-35.7-26.3-52.2-40.8s-6.4-7.8-11.5-11.1-9.5-6.6-12.2-8.8c-2.2-1.9-5.4-4.8-7.9-7.5-21.5-23.6-45.7-45.4-67.1-68.9-5.9-6.5-8.5-20.1-21.5-17.7-9.1,3.2-2.6,28.5-2.5,35.7,1.2,122.6-.6,222.5-46.4,339.6-34.2,87.1-98.9,184-162.9,252.1-9,9.6-33,41.7-45.5,41.2-2.7-.1-10.4-2.9-12.6-4.5-11.5-8.7-27.1-28.1-37.6-39.4-137.7-148.9-214.6-333.9-215.1-539,0-16.1,5-34.2,4.2-50.1-.2-4-3.9-32.1-5.3-33.1-8.5-6.4-20.8,14.6-26.2,19.9-55.8,56.4-107.8,110.8-174.5,155.4-25,16.7-61.9,34.2-90.8,47.2-96.1,43.3-201.8,60.7-306.4,63.6-28.8.8-44.2,5.1-46.9-29-1-11.8,1.7-21.2,2-31.9,4.6-129.9,29.6-259.7,92.3-375.7,40.2-74.5,99.7-139.4,159.6-198.4,4.1-4,25.9-17.1,22.1-22.9-17.6-5.1-37.5-.5-55.1-.6-38.4-.2-77.6.3-115.6-2.2-81.3-5.3-171.3-28.4-241.9-67.7-14.7-8.2-25-15.7-40.1-23.9-51.3-27.7-99-63.8-142.3-101.7-6.5-5.7-16.4-14-22.1-19.9-3.2-3.4-25-30-25.9-32.1-6.5-16,13.8-27.3,22-35.9,127.2-133.8,287-222,474-234s82.2,3,120.1,0c6.1-.5,25.4-1.7,16.5-10.7s-10.5-9.7-15.5-14.4c-98.8-91.7-179-179.3-223-311-27.3-81.8-47.7-205.1-47-291,.3-40.4,40.3-23.4,63-23,3.8,0,7.7-2.2,11.9-2.1,171.4,5.9,314.3,45.7,449,153.2,37.9,30.2,68,69.9,103.1,102.9,7.6,7.2,17.3,12.8,25,19.9-.4-17.1-2.2-33.9-2.1-51.1.7-69-.2-141.1,12.6-209.4,23.7-126.2,105.1-274.5,191.4-368.6,8.5-9.2,41.6-44.1,53-43.1l62.1,60.1c112.1,127,189.8,278.2,199.1,450.9,2.2,40.5-2.8,80.7-2.2,120.2.1,8.9,2.8,18,3,27,1.9,3.5,7.3-1.2,9.2-3,17.9-17,34.8-40.3,52.6-58.4ZM1533.5,1877.6l4.8,2.1c5.7-.2,14.8-20.6,17.1-26.2,36.4-87.6,67.7-177.7,102.2-265.8,21.5-54.9,41.6-89,47.4-150.6,4.7-50,5.1-109.9,4.4-160-2.3-158.8-59.9-277.9-151.6-402.8s-38.6-53.9-49.8-62.2c-19.7-14.4-27.2-4.2-40.9,11-81.9,91.1-144,226.8-169.8,344.2-14.8,67-11.3,154.6-8.3,223.9,2.3,52.6,10.4,99,30.9,147.1,35.3,83.1,71.1,167.5,106.2,249.8,9.1,21.3,18,45.5,28,66,1.8,3.7,13.7,26.2,14.9,27.1,7.1,4.7,10.2-14.2,10.2-18.1,0-11.6.3-27,0-37.9-.6-15.6-30.4-71.3-38.4-89.8-69.3-160.3-137.2-354.3-119.4-532.1,11.7-117.2,68.4-245.1,145.7-332.3,21.8-24.6,23.2-33,50.1-6.1,4.9,4.9,6.8,10,10.6,14.4,114.3,130.6,167.4,289.4,145.2,463.6-2.8,21.7-6.6,45.7-11.5,66.5s-1.9,26.2-5,39c-22.1,90.6-51,176.6-84.9,263.1-9.9,25.3-17.5,52.6-30.2,75.8-7,12.8-10.5,26.9-11.3,41.6-.4,6.9.6,45.6,3.4,48.5ZM1490.5,918.5c-13.9,3.1-33.6,32.9-41.1,45-128.9,208.1-89.5,424.2-7.3,640.6,13.9,36.7,32.7,86.3,52.2,119.8,4.4,7.5,8,15.1,14.5,4.9,11.4-18,23.3-51.9,31.2-72.8,41.1-107.8,74.4-225.4,87-341,13.8-126.6-23.3-253.7-95.1-358.8-5.3-7.7-25.3-35.9-32.3-37.7-3.2-.8-5.8-.8-9,0ZM2374.4,1156.7c-2.3-2.5-6.9-4.3-10.3-4.7-25.3-3.2-50.1,6-74.7,9.5-21.5,3.1-20.2,1-37.2,2.8-8.9,1-19.1,5.6-28.8,7.2-46.7,7.8-72.9,13.2-116.2,33.8-13.1,6.2-20,7-32.2,11.8-119,47.3-260,190.8-327.9,297.5-1.5,2.3-5.3,2.6-7,5.5-4.4,7.7-12.6,36.8-17.3,48.3-37.4,90.1-72.7,182.3-108.7,273.7-3.6,9.1-5.8,23.8-9.6,32.4s-17.3,18-9.6,28.7,12-2.6,16.1-6.1c26-22,42.5-46.2,53.5-78.5s18-53.9,29-81c20.7-51.6,45.6-106,70.5-155.5,43.2-86,114.8-196,187-257,85.5-72.2,211.1-130,321.3-144.9,8-1.1,20.2,2,27.5,1.7,9.8-.4,30.5-7,38.4-1.9s8.9,23.8,9,31.1c.3,15.7-4.2,38.4-5.9,54.2-18.3,163.6-105.5,323.7-240.3,417.7-60.7,42.3-123.9,84.7-190,114-9.3,4.1-18.1,11.5-26,16-43.9,25-94.1,40.9-139.9,60.1-46.4,19.5-61.9,26.9-94.5,64.5-2,2.3-8.5,1.3-9.3,7.6,3.9,4.9,12.8,6.4,18.5,4.6s6.6-2.8,9.5-4.4c6.9-3.9,17.6-7.3,24.3-9.7,16.1-5.7,36-18.6,52.4-25.6,36-15.3,72.4-30.3,108.5-45.5,26.8-11.3,52.4-23.7,78.9-35.1,16.1-7,37.9-11.8,53.6-18.4,48.4-20.3,81-54.6,122.2-85.8,102-89.8,179.9-185.2,226.5-315.5,20.7-57.8,51.5-183.6,43.3-242.4-.4-2.8-2.7-8.5-4.5-10.5ZM922.4,1242.8c-28.9-15.9-66.1-24.1-97.8-31.2-17.2-3.8-33.2-12.8-52.7-15.3-37.9-4.8-75.9-8.5-113.7-8.1-7.8,0-16.9-4.1-25.2,3.2-4,26.4,1.8,53.9,5.6,80.3,7.7,53.3,16.6,103.5,35.1,154.9,51.5,143.3,136.8,237.1,252.5,331.5,44,35.9,66.4,49,119.1,70.9,69.7,29,140.9,55.3,211,83,31.8,12.6,62.3,28.3,94.9,37.1,5.1,1.4,11.8,8.3,18.1,4.1s-9.7-15.6-13.1-19c-32.9-33.3-42.9-32.9-85-49-63.1-24.2-123.3-51.2-185.4-78.6s-22.6-11.7-33.9-18.1c-22.5-12.9-40.5-20.4-63.2-34.9-39.9-25.6-80.1-50-115.6-80.3-52-44.5-89.5-85.4-125.6-144.4-51.1-83.3-82-190.3-82.3-287.7s-4.7-18.1,1.8-26.1c4.5-5.6,8.8-1,13.1-1.3,108.9-6.9,258.4,42.8,344.8,109.6,151.5,117.1,255.9,329.6,322.1,505.9,11.3,30.1,17.4,38.8,41.1,58.9,8,6.8,36.6,34.9,25.9,4.1s-25.4-56.6-37.3-84.7c-35.7-84-68.4-169.7-104.8-253.2-16.8-38.4-53.7-75.5-81.8-106.2-57-62.4-110.8-117.2-182.8-163.3-26.7-17.1-57.7-27.1-84.9-42ZM2161.7,1556.8c68.5-75.1,130.1-195.4,141.1-297.9,3.8-35.7-9.6-35.9-39.8-29.8-108.1,21.9-221,72.4-298.8,151.2-28.7,29-51.1,59.5-76.1,91.9-26.6,34.4-53.8,88.2-73.1,125.4-32.1,61.8-63.6,125.1-87,190.6-1.8,5-11,34-9,36,18.6.3,32.6-11.5,48.6-18.4,143.4-61.8,287.2-131.8,394.1-248.9ZM1017.8,1387.3c-74.2-64.1-146.6-99.7-243.5-117.5-13.2-2.4-50.9-13.5-61.1-6.7-7,4.7-5.7,33.3-3.6,41.5,10.1,39.2,18.4,81.3,35.2,118.8,70.4,157.7,182.5,236.4,328.9,315.1,59.5,32,124.9,63.6,189.5,82.5,8.2,2.4,14.8,10.3,25.9,7.1-.6-9.6-4-18.6-7.6-27.4-58.4-144.8-144.8-310.7-263.7-413.4ZM2667.8,2104.9c22.6-16.6,53.4-36.3,72.3-56.7,25.4-27.4-7.3-35.1-25-49.2-42.9-34.1-81.6-67.3-132.6-89.4-9.3-4-17.6-12.3-27.1-16.9-96-46.7-212-75.8-319.5-70.6-60.1,2.9-120.8,4.7-179.5,16.5-13.7,2.8-40.8,18.7-55.5,24.5-47.2,18.8-92,39.5-138.9,59.1-59.3,24.8-118.1,49-176.4,75.6-6.4,2.9-24.3,9.3-11.6,14.4,5.8,2.3,47.6,2.9,55.8,2.1,19.1-2,35.3-15.9,52.4-23.8,124.6-57.9,260.6-106.1,396.2-129.8,75.7-13.2,154.8-14.1,229.4,1.7,71.9,15.2,144.1,51,207.8,86.2,22.2,12.3,51.6,38.3,70.4,55.6s26.9,22.9,12,42.1c-9.1,11.6-62,58.2-75.1,66.9-66,43.8-166.4,90.2-245.4,100.6-113.9,15-206.8.9-316.1-27-60.7-15.5-121.6-32.5-179-55-33.9-13.3-69.9-25.7-103.3-40.7-9.3-4.2-26.3-16.3-34-18-7.2-1.5-24.9-.9-31.1-.5l-3.5.3c-2.6,0-27.9,2.2-41.5-2.7l.2,7.8c24,9.8,47.7,22.3,72.4,32.6,56.2,23.4,111.8,45.5,167.4,68.6,50.9,21.2,122.1,56,175.2,62.8,78.3,10,239.7,13.1,312.8-8.8,17.4-5.2,27.8-4.3,44.1-7.9,11.1-2.4,39.1-14,51.3-18.7,63.1-24.6,120.9-61.6,175.4-101.6ZM1143.3,1927.9c-.6-.3-6.2-2.7-10.4-4.6-16.2-7.5-42.9-16.7-60.4-23.6-45.2-18-104-49.3-152.5-49.7-6.3,0-11.8,2.6-17.9,2.3s-17.3-5.3-26.1-6.1c-14.6-1.2-36.1.1-52,0-27.3-.3-54.4,2.1-80,2-110.6-.3-222.8,45.3-313.7,104.3-20.5,13.3-30.5,22.1-48.6,37.4-10.4,8.8-27.4,16.8-39.6,26.4-14.1,11-27.4,25.2-41.2,36.8l-2,9.7,46.2,38.3c116.7,87.4,249.3,157.2,399,157.2,45.4,0,93,1,138-2,65.5-4.4,100.5-16.7,158.9-41.1,64-26.7,127.7-56,192-84,29.5-12.8,60.8-24.2,90.3-37.7,3.9-1.8,22.5-10.4,21.6-14.4-5.7-7.9-14-1.8-17-1.8s-3.6-2.7-6.2-3c-43-4.5-55.6,8.1-90.3,25.3-29.4,14.6-65.3,28.8-96.6,41.4-103.4,41.8-215,74.6-324.9,89-74,9.7-146,5.7-217.5-14.5-53.1-15-113.3-45.6-159.3-74.7s-25-13.3-32.1-19.9c-4.7-4.3-5.4-9.7-9.1-12.9-9.2-7.9-19.1-12.1-31-23-12.8-11.7-28.6-17-16.5-38.3,1.7-2.9,22.6-23.7,26.6-27.4,38.8-35.8,100.5-74.6,149-97,146.8-67.7,286.4-57.9,439.2-19.7,74.6,18.7,156.3,45.2,227.6,74.4,23.4,9.6,79.9,41.6,101.1,42.9,5,.3,8.9.6,13.8.8s36.5,5.5,45.1-12.7c-15-4.6-30.9-8-43.6-17.4-31.5-12.4-64.5-22.8-95.6-34.4-6.7-2.5-15.4-10.3-24.3-13.7-8.3-3.2-37.6-13.4-40.3-14.7ZM2615.8,2056.8c7.9-5.6,23.3-13.9,24.9-24.2,2.3-13.9-43.1-33.3-51.9-43.3-135.3-81.2-268.1-99.8-422.2-72.6-70.9,12.5-141.6,37.4-209.6,58.4-25.5,7.9-64.1,29-89.5,40.5-7.8,3.5-48.5,16.7-48.6,25.5s22.5,10.8,28.7,13.5c16,7,29.5,14,46.8,21.2,121.4,49.9,252.9,86,383.5,92.5,120.7,6,242.3-43.5,337.8-111.3ZM1203,2044.1c-.4-.6-10.6-2.4-13.4-3.6-9.3-4.2-23.5-15.1-32.2-17.6s-16.1-6.1-22.3-8.3c-8.7-3.2-26.2-9.7-36.2-13.5-17.7-6.7-44.1-13.2-64.1-19.9-73.5-24.8-146.9-44.6-225.1-52.9-135.7-14.4-263.7,21.2-372.9,100.6-10.9,7.9-25.5,11.8-29.4,26.5-.2,2.9,4.6,8.2,6.6,10.7,19.8,24.2,85.2,58.2,115.1,70.9,96.4,41.3,201.1,54,304.4,36.5,74.1-12.5,143.3-34.9,214-56,25.9-7.7,59.9-25.5,85.5-36.5,22.9-9.9,45.8-17.4,68-30,2.3-.9,2.8-5.8,2-6.9ZM1587.9,1973.2c-55.7-65.5-157.7-41.2-185.8,36.9-2.3,6.4-5.3,35.4-5.2,42.9.4,32.5,35.9,78.8,65.7,90.5,14.4,5.7,42.2,11.7,57.4,10.5s53.3-19.3,64.1-29.9c43-42.5,42-105.9,3.8-150.9ZM1370.9,2136.2c-2.1-1.6-22.3,5.3-25.8,6.9-50,22.3-101.4,46.4-152.1,67.9-63.2,26.8-130.4,49.5-191.7,80.3-58.6,29.4-118.9,104.4-165.4,150.6-32.6,32.4-67.9,76.7-90.3,117.7-33.2,60.7-52.4,116.9-64.9,185.1-1.6,8.5-9,20.6-11.1,30.9-6.8,34.6-10.6,68.8-10.5,103.5,0,9.3-6.8,29,1.8,36.2,10.7,9,47.1-3.4,61.8-4.6,10.5-.8,21.5,2.1,31.2,1.2,8.9-.8,22.9-9.3,28.1-9.6,17.4-.8,25.6-1.4,43.1-7.2,13.3-4.4,14.3-4.6,28.5-7.5,160.3-33.2,278.2-149.8,376.6-271.4,25.6-31.6,39.9-51,55.8-90.1,42.4-104,80-210.3,125.3-312.7,4.7-10.6,12.1-16.9,6.7-31.3-4.1-.3-13.6,6.2-17,9-10.7,8.5-41.5,44.5-45.4,56.6s-.5,11-1.8,16c-2.6,10.3-11.7,25.5-15.6,36.5-32.5,90.2-77.5,194.1-127,275-12.4,20.3-27.4,38.2-40.9,57.1-8.6,12-15.8,28.4-25.1,40.9-45,60-132.6,133.8-201.6,164.4-43.1,19.2-88.4,39.4-135.5,48.5s-86,15.3-107.3,11.6c-9.5-1.6-18.4-8.4-19.6-18.5-1.4-12.1.9-44.6,2.3-57.8,12.3-117.8,64.9-243.2,141.8-332.2,103.2-119.4,256.7-194,396.2-259.9l109.7-40.3c3.5-7.5,9.3-10.8,14.1-15.9,4.1-4.3,25.9-28.1,27-31s-.8-5.6-1.1-5.9ZM2109.9,2347.2c-37.1-30.9-62.5-48.8-106.2-68.7-93.7-42.7-190.3-79.4-286.6-117.4-21.5-8.5-42.1-22.6-66-23-.2,3.4-.4,6.7,1,10,2.3,5.3,40.7,37.8,46.9,41.2,17.5,9.6,37.5,11,54.1,17.9,37.3,15.4,74.2,32.2,111.9,46.1,11.1,4.1,30.4,17.8,42.3,23.7,103.7,51.4,204.9,104.4,286.7,187.3,68.1,68.9,111.7,134.8,143,227,8.9,26.2,25.8,74,29.9,100.1,3.6,23.2,6.7,62.5,6.4,85.8,0,6.6-1.1,15.1-7.4,18.8-6.2,3.6-46.2,3-55.9,2.3-10.2-.7-21.6-6-29.9-6.3s-14.6-1.7-19.6-2.2-14.7-2.4-21.8-4.2c-29.9-7.7-63.2-15.3-91.6-26.4-106.9-41.9-190-101.8-261.2-190.8-92.2-115.3-179.2-283.3-225.8-422.2-2.6-7.6-13.1-26.1-19-31s-7.1-2.9-9.2-4.8-3.1-7.1-5.8-10.2-18-14.3-19.1-14.9c-2-1.1-3.8-1.3-6-1-2,11.7,5.2,20.2,8.6,30.4,16.2,48.2,37.3,95.4,57.7,142.3,2.7,6.3,7.8,11.1,9.9,16.1,3.3,8,5.5,17.4,8.4,25.4,2,5.4,3.8,9.9,5.9,14.3,33.5,71.5,48.3,132.8,99.6,196.4,37.9,46.8,83.8,92.8,126.8,133.2,76,71.3,154.1,108.8,250.7,143.4,8.3,3,18.8,6.2,26.2,8.7s11.7,4.4,20.2,6.8c14.8,4.2,26.6,7.9,39.4,10.5,9.9,2,23.8,4.5,35.8,6.3,17.8,2.6,37,7.3,54.5,9s43.9,4.5,54.3-1.8c8.2-5,6.8-42.1,5.9-52-1.4-16.9-8.7-43.7-12.2-61.8-26.5-135.7-74-253-168.7-355.3-32.5-35.1-78-78.7-114.1-108.9ZM1479,2208.1c-4.3-4-19.6,22.9-21,26-28.7,63.3-52.2,135.5-78,200-15.6,38.8-36.2,79-49.9,118.1-28.2,80.5-28.5,207.9-23.1,293,9.2,146.4,90.6,303.2,185.8,412.2,4.7,5.3,12.5,17.5,18.4,21.7,17.6,12.4,17.8,0,25.9-9.9,30.7-37.3,63.6-75.9,89.6-116.4,7.5-11.6,10.3-26.4,16.6-37.4,3.4-5.9,10.5-12.4,14.6-19.4,75.7-133.3,77.6-297.3,59.6-445.3-3.7-30.7-4.4-47-15.5-76.5-20.6-54.7-45.4-109.4-68.6-163.4s-42.5-90.9-57.3-136.7c-4.2-12.9-21-48-28.2-59.8-.7-1.2-3.6-4.8-4.8-4.2-3.9,7.2-7,7.6-8,17-4.9,45.9,7,57.8,24.4,95.6,47,101.9,84.1,206.6,110.6,315.4,47.3,195,35.5,340.4-70.1,511.8-12.1,19.7-25,38.9-37.9,58.1l-36.2,35.8c-18.6,6.1-38.2-26.3-48.7-38.7-25.5-30.1-44.7-54.8-63.4-90.6-5.8-11.2-7.5-23.8-12.1-33.9s-11.6-15.6-14.8-23.2c-65.4-150.8-59.6-293.8-20.5-449.3,18-71.5,37.9-139.1,63.9-208.1,3.5-9.4,5.3-19.7,9-29,18.3-46.3,47.4-84,44-135.9s-3.1-18.4-4-27ZM2168.3,2510.8c-83-82.5-198.3-145.9-303.9-195.1-28.2-13.1-91.5-45-118.9-49.3-3.7-.6-7.4,1.7-9.2,1.3-3.4-.7-3.6-9-9.2-7.7-1.5,13.3,6.6,23.2,10.6,34.3,13.6,37.2,30.4,76,47.6,112.4,26,54.8,57.8,103.9,89.7,154.3,93.8,148,199.5,231.2,371.6,274.4,11.3,2.8,50.5,12.7,59.5,12.6,5.5,0,14.9-3.7,16.5-9.4s-.7-26.4-1.7-33.4c-15-100.3-81-223.4-152.5-294.5ZM1196.3,2495.3c32.7-63.5,61.5-128.8,85.2-195.8,3.3-9.3,9-19.9,12.7-29.4,1.4-5.7-10.4-4.3-13.7-3.6-7,1.5-35.4,11.9-42.8,15.1-112.2,48.2-201.9,100.3-299.3,170.7-32.2,23.3-69.1,60.3-95.2,90.8-12,14-14.1,23.3-22.1,38-3.1,5.8-8.4,7.5-10.9,11-37.4,53.6-57.9,123.6-69.2,186.9s-8.3,16.6-9.5,24.7c-.7,4.4-1,25.5-.5,29.5.8,6,2.5,8.8,9.1,9.1,152.2-16.8,284.1-94.5,373.8-216.3,30.3-41.1,59.2-85.6,82.4-130.6ZM1514.4,2358.7c-7.4-6.8-14.8,5.9-17.8,12s-5.8,20.9-9.2,28.8c-20.7,49.1-34,80.9-46.9,133.1-2.8,11.4-13,27.2-16.7,39.3-11.1,37-20.9,85.6-28.8,123.2-6.2,29.4-9.1,75.6-10.1,105.9-3.6,110.9,28.6,206.6,79.2,302.8,8.7,16.5,28,46.2,40.7,59.3,18.9,19.4,24.4,5.6,36.9-11.2,52.6-70.8,89.6-167.9,103-255,21.6-140.8-42.8-338.6-97.4-468.2-5.9-14-11.6-28.6-17.5-42.5s-12.2-18.8-15.5-27.5Z"/>
  <path class="st2" d="M2161.7,1556.7c-106.8,117.2-250.6,187.1-394.1,248.9-16,6.9-30,18.7-48.6,18.4-2-2,7.2-31,9-36,23.5-65.5,54.9-128.8,87-190.6,19.3-37.1,46.5-90.9,73.1-125.4,25-32.3,47.4-62.8,76.1-91.9,77.8-78.8,190.7-129.3,298.8-151.2,30.2-6.1,43.6-5.9,39.8,29.8-11,102.5-72.6,222.8-141.1,297.9Z"/>
  <path class="st2" d="M2168.3,2510.3c71.5,71.1,137.6,194.2,152.5,294.5,1,7,3.4,27.7,1.7,33.4-1.7,5.7-11,9.3-16.5,9.4-9,.1-48.2-9.7-59.5-12.6-172-43.2-277.8-126.4-371.6-274.4-31.9-50.4-63.8-99.5-89.7-154.3-17.2-36.4-34-75.2-47.6-112.4-4.1-11.1-12.2-21-10.6-34.3,5.6-1.3,5.7,6.9,9.2,7.7s5.5-1.9,9.2-1.3c27.4,4.3,90.8,36.1,118.9,49.3,105.6,49.1,220.9,112.6,303.9,195.1Z"/>
  <path class="st0" d="M2615.5,2056.5c-95.5,67.8-217.2,117.3-337.8,111.3-130.6-6.4-262.1-42.6-383.5-92.5-17.3-7.1-30.9-14.2-46.8-21.2s-28.8-4.6-28.7-13.5,40.8-22,48.6-25.5c25.4-11.4,64.1-32.6,89.5-40.5,68-21,138.7-45.9,209.6-58.4,154-27.1,286.9-8.5,422.2,72.6,8.8,10.1,54.2,29.4,51.9,43.3-1.7,10.3-17,18.6-24.9,24.2Z"/>
  <path class="st0" d="M1490.4,918.4c3.2-.7,5.9-.8,9,0,7,1.8,27.1,30,32.3,37.7,71.9,105.1,108.9,232.2,95.1,358.8-12.6,115.6-45.9,233.2-87,341-7.9,20.8-19.8,54.8-31.2,72.8-6.5,10.2-10.1,2.6-14.5-4.9-19.5-33.5-38.2-83.1-52.2-119.8-82.2-216.4-121.6-432.4,7.3-640.6,7.5-12.1,27.1-41.8,41.1-45Z"/>
  <path class="st0" d="M1514.4,2358.6c3.3,8.6,12.3,19.8,15.5,27.5,5.9,13.9,11.6,28.5,17.5,42.5,54.6,129.6,119,327.5,97.4,468.2-13.3,87.1-50.4,184.2-103,255-12.5,16.8-17.9,30.6-36.9,11.2-12.8-13.1-32-42.8-40.7-59.3-50.6-96.1-82.8-191.8-79.2-302.8,1-30.3,4-76.5,10.1-105.9s17.7-86.2,28.8-123.2c3.6-12.1,13.9-28,16.7-39.3,12.9-52.2,26.1-84.1,46.9-133.1,3.3-7.9,5.1-20.7,9.2-28.8s10.4-18.8,17.8-12Z"/>
  <path class="st2" d="M1017.8,1387.2c118.9,102.7,205.2,268.6,263.7,413.4,3.6,8.8,6.9,17.7,7.6,27.4-11.1,3.3-17.7-4.7-25.9-7.1-64.6-18.9-130-50.5-189.5-82.5-146.4-78.7-258.5-157.4-328.9-315.1-16.7-37.5-25.1-79.7-35.2-118.8-2.1-8.1-3.3-36.8,3.6-41.5,10.2-6.9,48,4.3,61.1,6.7,96.9,17.8,169.3,53.3,243.5,117.5Z"/>
  <path class="st2" d="M1196.2,2495.3c-23.2,45-52.1,89.4-82.4,130.6-89.8,121.8-221.7,199.5-373.8,216.3-6.6-.3-8.3-3.1-9.1-9.1s-.2-25.2.5-29.5c1.3-8,8.4-18.3,9.5-24.7,11.3-63.2,31.8-133.3,69.2-186.9,2.4-3.5,7.8-5.2,10.9-11,8-14.7,10.1-23.9,22.1-38,26.1-30.5,63-67.5,95.2-90.8,97.4-70.4,187.1-122.5,299.3-170.7s35.8-13.6,42.8-15.1,15.1-2,13.7,3.6c-3.7,9.4-9.4,20.1-12.7,29.4-23.7,67-52.5,132.3-85.2,195.8Z"/>
  <path class="st0" d="M1204,2044c.7,1.1.3,6.1-2,6.9-22.1,12.6-45,20.2-68,30-25.6,11-59.6,28.8-85.5,36.5-70.8,21-139.9,43.4-214,56-103.3,17.5-208,4.8-304.4-36.5-29.8-12.8-95.3-46.7-115.1-70.9-2-2.5-6.8-7.8-6.6-10.7,3.9-14.8,18.5-18.6,29.4-26.5,109.3-79.4,237.2-114.9,372.9-100.6,78.2,8.3,151.7,28.1,225.1,52.9s46.3,13.2,64.1,19.9c10,3.8,32.9,12.7,41.9,15s9.4,4.7,16.7,6.9,22.6,13.4,31.9,17.6,13,3,13.4,3.6Z"/>
  <path class="st1" d="M1532.5,1875.5c-2.8-2.9-3.8-41.6-3.4-48.5.8-14.7,4.3-28.8,11.3-41.6,12.6-23.2,20.2-50.5,30.2-75.8,34-86.5,62.8-172.5,84.9-263.1,3.1-12.8,2.3-27.6,5-39,4.9-20.9,8.7-44.8,11.5-66.5,22.3-174.2-30.9-332.9-145.2-463.6-3.8-4.3-5.7-9.5-10.6-14.4-26.9-26.9-28.2-18.6-50.1,6.1-77.3,87.1-134,215.1-145.7,332.3-17.8,177.8,50.1,371.8,119.4,532.1,8,18.4,37.8,74.1,38.4,89.8.4,10.9,0,26.3,0,37.9s-3.1,22.8-10.2,18.1-13.1-23.3-14.9-27.1c-10-20.5-18.9-44.7-28-66-35.1-82.3-70.9-166.7-106.2-249.8-20.4-48.1-28.6-94.5-30.9-147.1-3-69.3-6.5-156.9,8.3-223.9,25.9-117.4,87.9-253.1,169.8-344.2,13.7-15.3,21.2-25.4,40.9-11,11.3,8.2,39.7,48.4,49.8,62.2,91.7,125,149.3,244,151.6,402.8.7,50.1.3,110-4.4,160-5.8,61.6-25.9,95.7-47.4,150.6-34.5,88.1-65.8,178.2-102.2,265.8-2.3,5.6-11.4,26-17.1,26.2l-4.8-2.1Z"/>
  <path class="st1" d="M2373.4,1154.6c1.9,2,4.1,7.7,4.5,10.5,8.2,58.9-22.6,184.7-43.3,242.4-46.6,130.3-124.5,225.7-226.5,315.5-41.1,31.2-73.8,65.5-122.2,85.8-15.7,6.6-37.5,11.4-53.6,18.4-26.5,11.4-52.1,23.9-78.9,35.1-36.1,15.2-72.5,30.2-108.5,45.5-16.4,7-36.3,19.8-52.4,25.6-6.7,2.4-18,6-24.8,9.9s-4.8,3-9,4.3-14.6.3-18.5-4.6c.8-6.3,7.3-5.2,9.3-7.6,32.6-37.6,48.1-45,94.5-64.5,45.8-19.2,96-35.1,139.9-60.1,7.9-4.5,16.7-11.8,26-16,66.1-29.3,129.2-71.7,190-114,134.8-94,222-254.1,240.3-417.7,1.8-15.8,6.2-38.5,5.9-54.2-.1-7.3-2.8-27.1-9-31.1-7.8-5-28.5,1.6-38.4,1.9-7.4.3-19.5-2.8-27.5-1.7-110.2,14.8-235.8,72.7-321.3,144.9-72.2,61-143.8,171-187,257-24.9,49.5-49.8,103.9-70.5,155.5-10.9,27.1-19.6,53.4-29,81-11,32.3-27.5,56.5-53.5,78.5-4.2,3.5-11.9,12-16.1,6.1-7.7-10.7,6-20.3,9.6-28.7s6-23.3,9.6-32.4c36.1-91.4,71.3-183.6,108.7-273.7,4.8-11.5,12.9-40.6,17.3-48.3,1.7-2.9,5.5-3.2,7-5.5,67.9-106.8,209-250.3,327.9-297.5,12.2-4.8,19.1-5.6,32.2-11.8,43.4-20.5,69.6-25.9,116.2-33.8,9.6-1.6,19.8-6.3,28.8-7.2,17-1.8,17.9,2.5,37.2-2.8,24-6.6,49.3-12.7,74.7-9.5,3.4.4,8,2.2,10.3,4.7Z"/>
  <path class="st1" d="M1478,2206c.9,8.6,3.4,18.5,4,27,3.4,51.9-25.7,89.6-44,135.9-3.7,9.3-5.5,19.6-9,29-26,69-45.9,136.7-63.9,208.1-39.1,155.5-44.8,298.5,20.5,449.3,3.3,7.6,11.8,16.6,14.8,23.2,4.6,10.1,6.3,22.7,12.1,33.9,18.7,35.8,37.9,60.5,63.4,90.6,10.5,12.4,30.2,44.7,48.7,38.7l36.2-35.8c12.9-19.1,25.8-38.4,37.9-58.1,105.6-171.4,117.4-316.8,70.1-511.8-26.4-108.9-63.6-213.5-110.6-315.4-17.4-37.8-29.3-49.7-24.4-95.6,1-9.4,4.2-9.8,8-17,1.2-.6,4,3,4.8,4.2,7.3,11.8,24.1,46.9,28.2,59.8,14.8,45.8,37.9,91.4,57.3,136.7s48,108.7,68.6,163.4c11.1,29.4,11.8,45.7,15.5,76.5,18,148,16.1,312.1-59.6,445.3-4,7.1-11.2,13.5-14.6,19.4-6.3,11-9.2,25.7-16.6,37.4-26,40.5-58.9,79.1-89.6,116.4-8.1,9.8-8.3,22.3-25.9,9.9-5.9-4.1-13.7-16.3-18.4-21.7-95.1-108.9-176.6-265.8-185.8-412.2-5.3-85.1-5.1-212.5,23.1-293,13.7-39.1,34.3-79.3,49.9-118.1,25.9-64.4,49.3-136.7,78-200,1.4-3.1,16.6-30,21-26Z"/>
  <path class="st1" d="M2668.1,2105.1c-54.5,40-112.3,77-175.4,101.6-12.2,4.8-40.2,16.3-51.3,18.7-16.3,3.6-26.7,2.7-44.1,7.9-73,21.9-234.5,18.8-312.8,8.8-53.2-6.8-124.4-41.5-175.2-62.8-55.6-23.2-111.2-45.2-167.4-68.6-24.7-10.3-48.4-22.8-72.4-32.6l-.2-7.8c14.6,3.8,18.6,3,40.3,2.7l6-.6c7.5-.1,22.6-.7,29.7.8,7.7,1.7,24.7,13.8,34,18,33.4,15,69.4,27.4,103.3,40.7,57.4,22.6,118.3,39.5,179,55,109.2,27.9,202.2,42,316.1,27,79-10.4,179.4-56.8,245.4-100.6,13.1-8.7,66.1-55.3,75.1-66.9,14.9-19.1,2.5-28.6-12-42.1-18.7-17.4-48.1-43.4-70.4-55.6-63.7-35.1-136-71-207.8-86.2s-153.7-14.9-229.4-1.7c-135.6,23.7-271.6,71.9-396.2,129.8-17.1,7.9-33.3,21.8-52.4,23.8-8.3.8-50,.3-55.8-2.1-12.7-5.1,5.2-11.5,11.6-14.4,58.4-26.5,117.1-50.8,176.4-75.6,46.9-19.6,91.7-40.3,138.9-59.1,14.7-5.9,41.8-21.8,55.5-24.5,58.7-11.8,119.4-13.7,179.5-16.5,107.6-5.2,223.5,23.9,319.5,70.6,9.5,4.6,17.7,12.9,27.1,16.9,51,22.1,89.6,55.3,132.6,89.4,17.7,14.1,50.3,21.8,25,49.2-18.9,20.4-49.7,40.2-72.3,56.7Z"/>
  <path class="st1" d="M2108.9,2345.1c36.2,30.2,81.6,73.8,114.1,108.9,94.7,102.2,142.2,219.5,168.7,355.3,3.5,18.1,10.8,44.9,12.2,61.8.8,9.8,2.2,47-5.9,52s-39.9,3.8-51.9,2.7c-17.5-1.6-39.1-7.3-56.9-9.9s-23.5-3-33.4-5c-12.8-2.6-27-7.5-41.8-11.8-8.5-2.4-14.4-4.1-20.5-6.1-7.5-2.5-17.7-6.4-26-9.4-96.6-34.6-174.7-72.1-250.7-143.4s-88.9-86.3-126.8-133.2c-51.4-63.5-66.2-124.8-99.6-196.4-2.1-4.5-3.7-8.5-5.6-14-2.9-8-5.4-17.7-8.6-25.8s-7.2-9.9-9.9-16.1c-20.3-47-41.5-94.1-57.7-142.3-3.4-10.2-10.6-18.7-8.6-30.4,2.2-.3,4,0,6,1s18.4,13.9,19.1,14.9c2.7,3.2,3,7.8,5.8,10.2s6.3,2.3,9.2,4.8c5.9,5,16.4,23.4,19,31,46.5,138.9,133.6,307,225.8,422.2,71.1,89,154.2,148.9,261.2,190.8,28.3,11.1,62.5,16.2,91.6,26.4,5.7,2,19.6,4.7,22.5,5,5,.5,11.2,1.2,19,1.5s19.7,5.5,29.9,6.3c9.7.7,49.7,1.3,55.9-2.3,6.3-3.6,7.3-12.2,7.4-18.8.3-23.3-2.8-62.6-6.4-85.8-4-26.1-20.9-73.9-29.9-100.1-31.3-92.2-74.9-158.1-143-227-81.8-82.9-183-135.9-286.7-187.3s-31.2-19.6-42.3-23.7c-37.7-14-74.6-30.7-111.9-46.1s-36.6-8.2-54.1-17.9-44.5-35.9-46.9-41.2-1.2-6.5-1-10c23.9.4,44.5,14.5,66,23,96.3,38,192.9,74.6,286.6,117.4,43.7,19.9,69.2,37.8,106.2,68.7Z"/>
  <path class="st1" d="M921.3,1240.7c27.2,15,58.1,24.9,84.9,42,72,46.1,125.8,100.9,182.8,163.3,28.1,30.7,65,67.8,81.8,106.2,36.4,83.5,69.1,169.2,104.8,253.2,11.9,28.1,27.3,55.5,37.3,84.7,10.7,30.9-17.9,2.7-25.9-4.1-23.7-20.1-29.8-28.8-41.1-58.9-66.2-176.2-170.6-388.8-322.1-505.9-86.3-66.8-235.9-116.5-344.8-109.6-4.4.3-8.6-4.4-13.1,1.3-6.4,8-1.8,18.2-1.8,26.1.2,97.5,31.2,204.4,82.3,287.7,36.1,58.9,73.6,99.8,125.6,144.4,35.4,30.4,75.7,54.7,115.6,80.3,22.6,14.5,40.7,22.1,63.2,34.9,11.3,6.5,21.4,12.7,33.9,18.1,62.2,27.4,122.4,54.3,185.4,78.6,42.1,16.2,52.1,15.7,85,49,3.4,3.4,21.4,13.4,13.1,19s-12.9-2.7-18.1-4.1c-32.7-8.8-63.1-24.5-94.9-37.1-70.1-27.7-141.4-53.9-211-83-52.6-21.9-75.1-35-119.1-70.9-115.7-94.4-200.9-188.2-252.5-331.5-18.5-51.4-27.4-101.6-35.1-154.9-3.8-26.3-9.6-53.8-5.6-80.3,8.4-7.4,17.5-3.1,25.2-3.2,37.8-.5,75.8,3.2,113.7,8.1,19.5,2.5,35.5,11.5,52.7,15.3,31.7,7.1,68.9,15.3,97.8,31.2Z"/>
  <path class="st1" d="M1369.8,2134.1c.3.2,1.6,4.6,1.1,5.9-1.1,2.9-22.9,26.7-27,31s-10.7,8.3-14.1,15.9l-109.7,40.3c-139.4,65.9-292.9,140.5-396.2,259.9-76.9,89-129.5,214.4-141.8,332.2-1.4,13.2-3.7,45.7-2.3,57.8,1.2,10,10,16.8,19.6,18.5,21.4,3.7,83.9-7.1,107.3-11.6,47.1-9.1,92.4-29.3,135.5-48.5,69-30.7,156.6-104.4,201.6-164.4,9.4-12.5,16.5-28.9,25.1-40.9,13.6-18.9,28.5-36.8,40.9-57.1,49.5-81,94.4-184.8,127-275,4-11,13-26.2,15.6-36.5,1.3-5-.2-9.7,1.8-16,3.9-12.1,34.7-48.1,45.4-56.6s13-9.3,17-9c5.4,14.4-2.1,20.7-6.7,31.3-45.3,102.4-82.9,208.8-125.3,312.7s-30.3,58.5-55.8,90.1c-98.4,121.6-216.3,238.2-376.6,271.4-14.2,3-15.2,3.1-28.5,7.5-17.5,5.9-25.7,6.5-43.1,7.2s-19.2,8.8-28.1,9.6c-9.7.9-20.7-2-31.2-1.2s-51.1,13.5-61.8,4.6c-8.6-7.2-1.8-26.9-1.8-36.2-.1-34.7,3.7-68.9,10.5-103.5,2-10.3,9.5-22.5,11.1-30.9,12.5-68.1,31.8-124.4,64.9-185.1,22.4-41,57.8-85.3,90.3-117.7,46.5-46.2,106.9-121.2,165.4-150.6,61.3-30.8,128.5-53.5,191.7-80.3,50.7-21.5,102.1-45.6,152.1-67.9,3.6-1.6,23.8-8.4,25.8-6.9Z"/>
  <path class="st1" d="M1142.6,1926.8c2,1.2,31.7,10.5,40,13.7s17.6,11.2,24.3,13.7c31.1,11.6,64,22,95.6,34.4,12.7,9.4,28.6,12.9,43.6,17.4-8.6,18.2-28.1,12.6-42.8,13.5-4.8.3-11.1-1.3-16.1-1.6-21.2-1.4-77.8-33.3-101.1-42.9-71.3-29.3-153-55.8-227.6-74.4-152.8-38.3-292.4-48-439.2,19.7-48.6,22.4-110.3,61.2-149,97-4,3.7-25,24.5-26.6,27.4-12.1,21.3,3.7,26.6,16.5,38.3,11.9,10.9,21.8,15.1,31,23,3.7,3.2,4.4,8.6,9.1,12.9,7.1,6.6,23.3,14.3,32.1,19.9,46,29,106.2,59.7,159.3,74.7,71.6,20.3,143.6,24.2,217.5,14.5,109.9-14.4,221.5-47.1,324.9-89,31.3-12.7,67.1-26.8,96.6-41.4,34.7-17.3,47.3-29.9,90.3-25.3,2.6.3,7.3.7,8.7.7,3,0,8.7-3.7,14.5,4.2.9,4-17.7,12.6-21.6,14.4-29.6,13.5-60.8,24.8-90.3,37.7-64.4,27.9-128.1,57.3-192,84-58.4,24.4-93.4,36.7-158.9,41.1-45,3-92.6,2-138,2-149.6,0-282.3-69.8-399-157.2l-46.2-38.3,2-9.7c13.7-11.6,27.1-25.8,41.2-36.8s29.2-17.6,39.6-26.4c18.2-15.3,28.1-24.1,48.6-37.4,90.9-59,203.1-104.6,313.7-104.3s52.7-2.3,80-2,37.4-1.2,52,0,19,2.2,26.5,2.6,11.2,1.2,17.5,1.2c48.5.4,106.8,32.9,152.5,49.7,19.2,7.1,43.7,16.7,60.4,23.6s10.3,5.4,10.7,5.6Z"/>
  <path class="st0" d="M1587.8,1973.2c38.2,44.9,39.2,108.4-3.8,150.9-10.7,10.6-48.7,28.8-64.1,29.9s-43-4.8-57.4-10.5c-29.8-11.7-65.3-58-65.7-90.5,0-7.5,2.9-36.5,5.2-42.9,28.1-78.1,130.1-102.4,185.8-36.9Z"/>
</svg>