<?xml version="1.0" encoding="UTF-8"?>
<svg id="_图层_1" data-name="图层 1" xmlns="http://www.w3.org/2000/svg" viewBox="0 0 640 640">
  <defs>
    <style>
      .cls-1 {
        fill: #666;
      }

      .cls-2 {
        fill: #ffd71e;
      }

      .cls-3 {
        fill: #802e1f;
      }
    </style>
  </defs>
  <g>
    <path class="cls-1" d="M319.94,568.5c-66.38,0-128.78-25.85-175.72-72.78-46.94-46.94-72.78-109.34-72.78-175.72s25.85-128.78,72.78-175.72,109.34-72.78,175.72-72.78,128.78,25.85,175.72,72.78,72.78,109.34,72.78,175.72-25.85,128.78-72.78,175.72-109.34,72.78-175.72,72.78Z"/>
    <path class="cls-2" d="M319.94,79c32.54,0,64.1,6.37,93.8,18.93,28.7,12.14,54.47,29.52,76.61,51.65,22.14,22.14,39.52,47.91,51.65,76.61,12.56,29.7,18.93,61.26,18.93,93.8s-6.37,64.1-18.93,93.8c-12.14,28.7-29.52,54.47-51.65,76.61-22.14,22.14-47.91,39.52-76.61,51.65-29.7,12.56-61.26,18.93-93.8,18.93s-64.1-6.37-93.8-18.93c-28.7-12.14-54.47-29.52-76.61-51.65-22.14-22.14-39.52-47.91-51.65-76.61-12.56-29.7-18.93-61.26-18.93-93.8s6.37-64.1,18.93-93.8c12.14-28.7,29.52-54.47,51.65-76.61,22.14-22.14,47.91-39.52,76.61-51.65,29.7-12.56,61.26-18.93,93.8-18.93M319.94,64c-141.38,0-256,114.62-256,256s114.62,256,256,256,256-114.62,256-256S461.33,64,319.94,64h0Z"/>
  </g>
  <circle class="cls-3" cx="196.75" cy="197.12" r="44.32"/>
  <circle class="cls-3" cx="442.95" cy="197.12" r="44.32"/>
  <circle class="cls-3" cx="442.95" cy="443.18" r="44.32"/>
  <circle class="cls-3" cx="319.94" cy="319.75" r="44.32"/>
  <circle class="cls-3" cx="196.75" cy="443.3" r="44.32"/>
</svg>